<svg xmlns="http://www.w3.org/2000/svg" viewBox="0 0 760 430" font-family="Segoe UI, Helvetica, Arial, sans-serif" font-size="11.5" xmlns:c2pa="http://c2pa.org/manifest"><metadata><c2pa:manifest>AAAWgmp1bWIAAAAeanVtZGMycGEAEQAQgAAAqgA4m3EDYzJwYQAAABZcanVtYgAAAEdqdW1kYzJtYQARABCAAACqADibcQN1cm46YzJwYTpmM2MxMzQ0NC01ZWI1LTQwZmUtOTY0MC02YjQ4YzUyOWExYWMAAAADl2p1bWIAAAApanVtZGMyYXMAEQAQgAAAqgA4m3EDYzJwYS5hc3NlcnRpb25zAAAAALxqdW1iAAAARGp1bWRjYm9yABEAEIAAAKoAOJtxE2MycGEuaW5ncmVkaWVudC52MwAAAAAYYzJzaOxLEF/VcGcRsdqr5Lsowk0AAABwY2JvcqNpZGM6Zm9ybWF0bWltYWdlL3N2Zyt4bWxqaW5zdGFuY2VJRHgseG1wOmlpZDo3MjY0NDU4OC1hNWU1LTQ0OGMtYmI4My0wMGU2Mzc3ZmQ5OGZscmVsYXRpb25zaGlwaHBhcmVudE9mAAAB4mp1bWIAAABBanVtZGNib3IAEQAQgAAAqgA4m3ETYzJwYS5hY3Rpb25zLnYyAAAAABhjMnNoqnnaRs9Njd1wkdbB3eutkgAAAZljYm9yomdhY3Rpb25zgqJmYWN0aW9ua2MycGEub3BlbmVkanBhcmFtZXRlcnOha2luZ3JlZGllbnRzgaJjdXJseC1zZWxmI2p1bWJmPWMycGEuYXNzZXJ0aW9ucy9jMnBhLmluZ3JlZGllbnQudjNkaGFzaFggzzqZcw4yW9LQ5FKC95vVOjkYqLADkdvcRXqbYuZeNuukZmFjdGlvbngdY29tLmFudGhyb3BpYy5jbGF1ZGUucHJvdmlkZWRqcGFyYW1ldGVyc6F4H2NvbS5hbnRocm9waWMub3JpZ2luLWNvbmZpZGVuY2VndW5rbm93bmtkZXNjcmlwdGlvbnhmQ2xhdWRlIHByb3ZpZGVkIHRoaXMgZmlsZSBhdCB0aGUgcmVxdWVzdCBvZiBhIHVzZXIgYW5kIG1heSBoYXZlIGNyZWF0ZWQgb3IgbW9kaWZpZWQgdGhlIGZpbGUgY29udGVudHMubXNvZnR3YXJlQWdlbnShZG5hbWVmQ2xhdWRlcmFsbEFjdGlvbnNJbmNsdWRlZPUAAADIanVtYgAAAEBqdW1kY2JvcgARABCAAACqADibcRNjMnBhLmhhc2guZGF0YQAAAAAYYzJzaG3yq8YAwzI0mPqj8sylYvYAAACAY2JvcqVjYWxnZnNoYTI1NmNwYWRNAAAAAAAAAAAAAAAAAGRoYXNoWCCj2OEY0/rxraqKWqR7+rL1xuKJ/BLyzSstClq7XBjdzWRuYW1lbmp1bWJmIG1hbmlmZXN0amV4Y2x1c2lvbnOBomVzdGFydBjDZmxlbmd0aBkeBAAAAj5qdW1iAAAAJ2p1bWRjMmNsABEAEIAAAKoAOJtxA2MycGEuY2xhaW0udjIAAAACD2Nib3KlY2FsZ2ZzaGEyNTZpc2lnbmF0dXJleE1zZWxmI2p1bWJmPS9jMnBhL3VybjpjMnBhOmYzYzEzNDQ0LTVlYjUtNDBmZS05NjQwLTZiNDhjNTI5YTFhYy9jMnBhLnNpZ25hdHVyZWppbnN0YW5jZUlEeCx4bXA6aWlkOjY0MjhkZDQ2LWU1YmQtNGE3Zi1hMTk1LWJkZTEzY2M4ZTVhMXJjcmVhdGVkX2Fzc2VydGlvbnODomN1cmx4LXNlbGYjanVtYmY9YzJwYS5hc3NlcnRpb25zL2MycGEuaW5ncmVkaWVudC52M2RoYXNoWCDPOplzDjJb0tDkUoL3m9U6ORiosAOR29xFepti5l4266JjdXJseCpzZWxmI2p1bWJmPWMycGEuYXNzZXJ0aW9ucy9jMnBhLmFjdGlvbnMudjJkaGFzaFggqIO273L2qf1tBCQRCFGzlwD7aGDMbrFf6OuX2ZwkM9eiY3VybHgpc2VsZiNqdW1iZj1jMnBhLmFzc2VydGlvbnMvYzJwYS5oYXNoLmRhdGFkaGFzaFggxdVOAGYAoiEKdRzVHeD/HlUBI0Wj3DA3Gg7uaAVh0IN0Y2xhaW1fZ2VuZXJhdG9yX2luZm+jZG5hbWVvQW50aHJvcGljIEZpbGVzZ3ZlcnNpb25lMS4wLjBrc3BlY1ZlcnNpb25lMi40LjAAABA4anVtYgAAAChqdW1kYzJjcwARABCAAACqADibcQNjMnBhLnNpZ25hdHVyZQAAABAIY2JvctKEWQISogEmGCFZAgowggIGMIIBjaADAgECAhRA5aAK7sI50L64g/oGQgU9Z1UTADAKBggqhkjOPQQDAzBJMRcwFQYDVQQKEw5BbnRocm9waWMsIFBCQzEuMCwGA1UEAxMlQW50aHJvcGljIENvbnRlbnQgQ3JlZGVudGlhbHMgUm9vdCBDQTAeFw0yNjA4MDcxODQzNTZaFw0yODA4MDYxOTQzNTZaMEQxFzAVBgNVBAoTDkFudGhyb3BpYywgUEJDMSkwJwYDVQQDEyBBbnRocm9waWMgQ2xhdWRlIENvbnRlbnQgU2lnbmluZzBZMBMGByqGSM49AgEGCCqGSM49AwEHA0IABJh6CmvLUBgFFNU0vUKlOVtE6djd17L5SuwX0LemFisBM3dkd/3cyjxFA3Qo5S46fX0/ihY0VZ7mfb9KF703t5OjWDBWMA4GA1UdDwEB/wQEAwIHgDAVBgNVHSUEDjAMBgorBgEEAYPoXgIBMAwGA1UdEwEB/wQCMAAwHwYDVR0jBBgwFoAUzlHiBIFOZFsj+OPEz5o+nMHXXMIwCgYIKoZIzj0EAwMDZwAwZAIwMXMdFJ4BetLLVY7ORuE9noqbbAZOZn/aArXyTwFAZfKrPzxF2vPoJNf1+UCdg1XGAjBwX1zd9WGqYkqmL5SFqw1QySjr1zJfpJM9+1rdDwSPLMOPOjKuiXjoU/pUUeG9RwmhY3BhZFkNngAAAAAAAAAAAAAAAAAAAAAAAAAAAAAAAAAAAAAAAAAAAAAAAAAAAAAAAAAAAAAAAAAAAAAAAAAAAAAAAAAAAAAAAAAAAAAAAAAAAAAAAAAAAAAAAAAAAAAAAAAAAAAAAAAAAAAAAAAAAAAAAAAAAAAAAAAAAAAAAAAAAAAAAAAAAAAAAAAAAAAAAAAAAAAAAAAAAAAAAAAAAAAAAAAAAAAAAAAAAAAAAAAAAAAAAAAAAAAAAAAAAAAAAAAAAAAAAAAAAAAAAAAAAAAAAAAAAAAAAAAAAAAAAAAAAAAAAAAAAAAAAAAAAAAAAAAAAAAAAAAAAAAAAAAAAAAAAAAAAAAAAAAAAAAAAAAAAAAAAAAAAAAAAAAAAAAAAAAAAAAAAAAAAAAAAAAAAAAAAAAAAAAAAAAAAAAAAAAAAAAAAAAAAAAAAAAAAAAAAAAAAAAAAAAAAAAAAAAAAAAAAAAAAAAAAAAAAAAAAAAAAAAAAAAAAAAAAAAAAAAAAAAAAAAAAAAAAAAAAAAAAAAAAAAAAAAAAAAAAAAAAAAAAAAAAAAAAAAAAAAAAAAAAAAAAAAAAAAAAAAAAAAAAAAAAAAAAAAAAAAAAAAAAAAAAAAAAAAAAAAAAAAAAAAAAAAAAAAAAAAAAAAAAAAAAAAAAAAAAAAAAAAAAAAAAAAAAAAAAAAAAAAAAAAAAAAAAAAAAAAAAAAAAAAAAAAAAAAAAAAAAAAAAAAAAAAAAAAAAAAAAAAAAAAAAAAAAAAAAAAAAAAAAAAAAAAAAAAAAAAAAAAAAAAAAAAAAAAAAAAAAAAAAAAAAAAAAAAAAAAAAAAAAAAAAAAAAAAAAAAAAAAAAAAAAAAAAAAAAAAAAAAAAAAAAAAAAAAAAAAAAAAAAAAAAAAAAAAAAAAAAAAAAAAAAAAAAAAAAAAAAAAAAAAAAAAAAAAAAAAAAAAAAAAAAAAAAAAAAAAAAAAAAAAAAAAAAAAAAAAAAAAAAAAAAAAAAAAAAAAAAAAAAAAAAAAAAAAAAAAAAAAAAAAAAAAAAAAAAAAAAAAAAAAAAAAAAAAAAAAAAAAAAAAAAAAAAAAAAAAAAAAAAAAAAAAAAAAAAAAAAAAAAAAAAAAAAAAAAAAAAAAAAAAAAAAAAAAAAAAAAAAAAAAAAAAAAAAAAAAAAAAAAAAAAAAAAAAAAAAAAAAAAAAAAAAAAAAAAAAAAAAAAAAAAAAAAAAAAAAAAAAAAAAAAAAAAAAAAAAAAAAAAAAAAAAAAAAAAAAAAAAAAAAAAAAAAAAAAAAAAAAAAAAAAAAAAAAAAAAAAAAAAAAAAAAAAAAAAAAAAAAAAAAAAAAAAAAAAAAAAAAAAAAAAAAAAAAAAAAAAAAAAAAAAAAAAAAAAAAAAAAAAAAAAAAAAAAAAAAAAAAAAAAAAAAAAAAAAAAAAAAAAAAAAAAAAAAAAAAAAAAAAAAAAAAAAAAAAAAAAAAAAAAAAAAAAAAAAAAAAAAAAAAAAAAAAAAAAAAAAAAAAAAAAAAAAAAAAAAAAAAAAAAAAAAAAAAAAAAAAAAAAAAAAAAAAAAAAAAAAAAAAAAAAAAAAAAAAAAAAAAAAAAAAAAAAAAAAAAAAAAAAAAAAAAAAAAAAAAAAAAAAAAAAAAAAAAAAAAAAAAAAAAAAAAAAAAAAAAAAAAAAAAAAAAAAAAAAAAAAAAAAAAAAAAAAAAAAAAAAAAAAAAAAAAAAAAAAAAAAAAAAAAAAAAAAAAAAAAAAAAAAAAAAAAAAAAAAAAAAAAAAAAAAAAAAAAAAAAAAAAAAAAAAAAAAAAAAAAAAAAAAAAAAAAAAAAAAAAAAAAAAAAAAAAAAAAAAAAAAAAAAAAAAAAAAAAAAAAAAAAAAAAAAAAAAAAAAAAAAAAAAAAAAAAAAAAAAAAAAAAAAAAAAAAAAAAAAAAAAAAAAAAAAAAAAAAAAAAAAAAAAAAAAAAAAAAAAAAAAAAAAAAAAAAAAAAAAAAAAAAAAAAAAAAAAAAAAAAAAAAAAAAAAAAAAAAAAAAAAAAAAAAAAAAAAAAAAAAAAAAAAAAAAAAAAAAAAAAAAAAAAAAAAAAAAAAAAAAAAAAAAAAAAAAAAAAAAAAAAAAAAAAAAAAAAAAAAAAAAAAAAAAAAAAAAAAAAAAAAAAAAAAAAAAAAAAAAAAAAAAAAAAAAAAAAAAAAAAAAAAAAAAAAAAAAAAAAAAAAAAAAAAAAAAAAAAAAAAAAAAAAAAAAAAAAAAAAAAAAAAAAAAAAAAAAAAAAAAAAAAAAAAAAAAAAAAAAAAAAAAAAAAAAAAAAAAAAAAAAAAAAAAAAAAAAAAAAAAAAAAAAAAAAAAAAAAAAAAAAAAAAAAAAAAAAAAAAAAAAAAAAAAAAAAAAAAAAAAAAAAAAAAAAAAAAAAAAAAAAAAAAAAAAAAAAAAAAAAAAAAAAAAAAAAAAAAAAAAAAAAAAAAAAAAAAAAAAAAAAAAAAAAAAAAAAAAAAAAAAAAAAAAAAAAAAAAAAAAAAAAAAAAAAAAAAAAAAAAAAAAAAAAAAAAAAAAAAAAAAAAAAAAAAAAAAAAAAAAAAAAAAAAAAAAAAAAAAAAAAAAAAAAAAAAAAAAAAAAAAAAAAAAAAAAAAAAAAAAAAAAAAAAAAAAAAAAAAAAAAAAAAAAAAAAAAAAAAAAAAAAAAAAAAAAAAAAAAAAAAAAAAAAAAAAAAAAAAAAAAAAAAAAAAAAAAAAAAAAAAAAAAAAAAAAAAAAAAAAAAAAAAAAAAAAAAAAAAAAAAAAAAAAAAAAAAAAAAAAAAAAAAAAAAAAAAAAAAAAAAAAAAAAAAAAAAAAAAAAAAAAAAAAAAAAAAAAAAAAAAAAAAAAAAAAAAAAAAAAAAAAAAAAAAAAAAAAAAAAAAAAAAAAAAAAAAAAAAAAAAAAAAAAAAAAAAAAAAAAAAAAAAAAAAAAAAAAAAAAAAAAAAAAAAAAAAAAAAAAAAAAAAAAAAAAAAAAAAAAAAAAAAAAAAAAAAAAAAAAAAAAAAAAAAAAAAAAAAAAAAAAAAAAAAAAAAAAAAAAAAAAAAAAAAAAAAAAAAAAAAAAAAAAAAAAAAAAAAAAAAAAAAAAAAAAAAAAAAAAAAAAAAAAAAAAAAAAAAAAAAAAAAAAAAAAAAAAAAAAAAAAAAAAAAAAAAAAAAAAAAAAAAAAAAAAAAAAAAAAAAAAAAAAAAAAAAAAAAAAAAAAAAAAAAAAAAAAAAAAAAAAAAAAAAAAAAAAAAAAAAAAAAAAAAAAAAAAAAAAAAAAAAAAAAAAAAAAAAAAAAAAAAAAAAAAAAAAAAAAAAAAAAAAAAAAAAAAAAAAAAAAAAAAAAAAAAAAAAAAAAAAAAAAAAAAAAAAAAAAAAAAAAAAAAAAAAAAAAAAAAAAAAAAAAAAAAAAAAAAAAAAAAAAAAAAAAAAAAAAAAAAAAAAAAAAAAAAAAAAAAAAAAAAAAAAAAAAAAAAAAAAAAAAAAAAAAAAAAAAAAAAAAAAAAAAAAAAAAAAAAAAAAAAAAAAAAAAAAAAAAAAAAAAAAAAAAAAAAAAAAAAAAAAAAAAAAAAAAAAAAAAAAAAAAAAAAAAAAAAAAAAAAAAAAAAAAAAAAAAAAAAAAAAAAAAAAAAAAAAAAAAAAAAAAAAAAAAAAAAAAAAAAAAAAAAAAAAAAAAAAAAAAAAAAAAAAAAAAAAAAAAAAAAAAAAAAAAAAAAAAAAAAAAAAAAAAAAAAAAAAAAAAAAAAAAAAAAAAAAAAAAAAAAAAAAAAAAAAAAAAAAAAAAAAAAAAAAAAAAAAAAAAAAAAAAAAAAAAAAAAAAAAAAAAAAAAAAAAAAAAAAAAAAAAAAAAAAAAAAAAAAAAAAAAAAAAAAAAAAAAAAAAAAAAAAAAAAAAAAAAAAAAAAAAAAAAAAAAAAAAAAAAAAAAAAAAAAAAAAAAAAAAAAAAAAAAAAAAAAAAAAAAAAAAAAAAAAAAAAAAAAAAAAAAAAAAAAAAAAAAAAAAAAAAAAAAAAAAAAAAAAAAAAAAAAAAAAAAAAAAAAAAAAAAAAAAAAAAAAAAAAAAAAAAAAAAAAAAAAAAAAAAAAAAAAAAAAAAAAAAAAAAAAAAAAAAAAAAAAAAAAAAAAAAAAAAAAAAAAAAAAAAAAAAAAAAAAAAAAAAAAAAAAAAAAAAAAAAAAAAAAAAAAAAAAAAAAAAAAAAAAAAAAAAAAAAAAAAAAAAAAAAAAAAAAAAAAAAAAAAAAAAAAAAAAAAAAAAAAAAAAAAAAAAAAAAAAAAAAAAAAAAAAAAAAAAAAAAAAAAAAAAAAAAAAAAAAAAAAAAAAAAAAAAAAAAAAAAAAAAAAAAAAAAAAAAAAAAAAAAAAAAAAAAAAAAAAAAAAAAAAAAAAAAAAAAAAAAAAAAAAAAAAAAAAAAAAAAAAAAAAAAAAAAAAAAAAAAAAAAAAAAAAAAAAAAAAAAAAAAAAAAAAAAAAAAAAAAAAAAAAAAAAAAAAAAAAAAAAAAAAAAAAAAAAAAAAAAAAAAAAAAAAAAAAAAAAAAAAAAAAAAAAAAAAAAAAAAAAAAAAAAAAAAAAAAAAAAAAAAAAAAAAAAAAAAAAAAAAAAAAAAAAAAAAAAAAAAAAAAAAAAAAAAAAAAAAAAAAAAAAAAAAAAAAAAAAAAAAAAAAAAPZYQFydVwubYrATpYOPsIxo1VMFYtsB031h6S74h+r8GzrMK+xLLm/MPK9gVPprMajmhtPFDj44x44h8oK2aWqdzlk=</c2pa:manifest></metadata>
<rect width="760" height="430" fill="#ffffff"/>
<text x="24" y="28" font-size="15" font-weight="600" fill="#222">Sensor na metade de cima, Peltier na de baixo</text>
<rect x="156" y="42" width="10" height="10" rx="2" fill="#2f6fb5"/>
<text x="172" y="51" fill="#222">Coluna 12: fio azul do sensor, pull-up até o 5V, jumper ao pino 2</text>
<rect x="134" y="60" width="540" height="302" rx="8" fill="#fafafa" stroke="#9a9a9a" stroke-width="1.25"/>
<rect x="148" y="62" width="518" height="16" rx="4" fill="#e6e6e6"/>
<rect x="148" y="80" width="518" height="16" rx="4" fill="#f6d5d1"/>
<rect x="148" y="324" width="518" height="16" rx="4" fill="#e6e6e6"/>
<line x1="140" x2="668" y1="218" y2="218" stroke="#cccccc" stroke-dasharray="4 4"/>
<rect x="335" y="120" width="16" height="88" rx="4" fill="#2f6fb5" fill-opacity="0.16"/>
<rect x="471" y="228" width="16" height="88" rx="4" fill="#e0662f" fill-opacity="0.16"/>
<rect x="539" y="228" width="16" height="88" rx="4" fill="#2f6fb5" fill-opacity="0.16"/>
<circle cx="156" cy="70" r="2.5" fill="#9a9a9a" fill-opacity="0.55"/>
<circle cx="156" cy="88" r="2.5" fill="#9a9a9a" fill-opacity="0.55"/>
<circle cx="156" cy="128" r="2.5" fill="#9a9a9a" fill-opacity="0.55"/>
<circle cx="156" cy="146" r="2.5" fill="#9a9a9a" fill-opacity="0.55"/>
<circle cx="156" cy="164" r="2.5" fill="#9a9a9a" fill-opacity="0.55"/>
<circle cx="156" cy="182" r="2.5" fill="#9a9a9a" fill-opacity="0.55"/>
<circle cx="156" cy="200" r="2.5" fill="#9a9a9a" fill-opacity="0.55"/>
<circle cx="156" cy="236" r="2.5" fill="#9a9a9a" fill-opacity="0.55"/>
<circle cx="156" cy="254" r="2.5" fill="#9a9a9a" fill-opacity="0.55"/>
<circle cx="156" cy="272" r="2.5" fill="#9a9a9a" fill-opacity="0.55"/>
<circle cx="156" cy="290" r="2.5" fill="#9a9a9a" fill-opacity="0.55"/>
<circle cx="156" cy="308" r="2.5" fill="#9a9a9a" fill-opacity="0.55"/>
<circle cx="156" cy="332" r="2.5" fill="#9a9a9a" fill-opacity="0.55"/>
<circle cx="156" cy="350" r="2.5" fill="#9a9a9a" fill-opacity="0.55"/>
<circle cx="173" cy="70" r="2.5" fill="#9a9a9a" fill-opacity="0.55"/>
<circle cx="173" cy="88" r="2.5" fill="#9a9a9a" fill-opacity="0.55"/>
<circle cx="173" cy="128" r="2.5" fill="#9a9a9a" fill-opacity="0.55"/>
<circle cx="173" cy="146" r="2.5" fill="#9a9a9a" fill-opacity="0.55"/>
<circle cx="173" cy="164" r="2.5" fill="#9a9a9a" fill-opacity="0.55"/>
<circle cx="173" cy="182" r="2.5" fill="#9a9a9a" fill-opacity="0.55"/>
<circle cx="173" cy="200" r="2.5" fill="#9a9a9a" fill-opacity="0.55"/>
<circle cx="173" cy="236" r="2.5" fill="#9a9a9a" fill-opacity="0.55"/>
<circle cx="173" cy="254" r="2.5" fill="#9a9a9a" fill-opacity="0.55"/>
<circle cx="173" cy="272" r="2.5" fill="#9a9a9a" fill-opacity="0.55"/>
<circle cx="173" cy="290" r="2.5" fill="#9a9a9a" fill-opacity="0.55"/>
<circle cx="173" cy="308" r="2.5" fill="#9a9a9a" fill-opacity="0.55"/>
<circle cx="173" cy="332" r="2.5" fill="#9a9a9a" fill-opacity="0.55"/>
<circle cx="173" cy="350" r="2.5" fill="#9a9a9a" fill-opacity="0.55"/>
<circle cx="190" cy="70" r="2.5" fill="#9a9a9a" fill-opacity="0.55"/>
<circle cx="190" cy="88" r="2.5" fill="#9a9a9a" fill-opacity="0.55"/>
<circle cx="190" cy="128" r="2.5" fill="#9a9a9a" fill-opacity="0.55"/>
<circle cx="190" cy="146" r="2.5" fill="#9a9a9a" fill-opacity="0.55"/>
<circle cx="190" cy="164" r="2.5" fill="#9a9a9a" fill-opacity="0.55"/>
<circle cx="190" cy="182" r="2.5" fill="#9a9a9a" fill-opacity="0.55"/>
<circle cx="190" cy="200" r="2.5" fill="#9a9a9a" fill-opacity="0.55"/>
<circle cx="190" cy="236" r="2.5" fill="#9a9a9a" fill-opacity="0.55"/>
<circle cx="190" cy="254" r="2.5" fill="#9a9a9a" fill-opacity="0.55"/>
<circle cx="190" cy="272" r="2.5" fill="#9a9a9a" fill-opacity="0.55"/>
<circle cx="190" cy="290" r="2.5" fill="#9a9a9a" fill-opacity="0.55"/>
<circle cx="190" cy="308" r="2.5" fill="#9a9a9a" fill-opacity="0.55"/>
<circle cx="190" cy="332" r="2.5" fill="#9a9a9a" fill-opacity="0.55"/>
<circle cx="190" cy="350" r="2.5" fill="#9a9a9a" fill-opacity="0.55"/>
<circle cx="207" cy="70" r="2.5" fill="#9a9a9a" fill-opacity="0.55"/>
<circle cx="207" cy="88" r="2.5" fill="#9a9a9a" fill-opacity="0.55"/>
<circle cx="207" cy="128" r="2.5" fill="#9a9a9a" fill-opacity="0.55"/>
<circle cx="207" cy="146" r="2.5" fill="#9a9a9a" fill-opacity="0.55"/>
<circle cx="207" cy="164" r="2.5" fill="#9a9a9a" fill-opacity="0.55"/>
<circle cx="207" cy="182" r="2.5" fill="#9a9a9a" fill-opacity="0.55"/>
<circle cx="207" cy="200" r="2.5" fill="#9a9a9a" fill-opacity="0.55"/>
<circle cx="207" cy="236" r="2.5" fill="#9a9a9a" fill-opacity="0.55"/>
<circle cx="207" cy="254" r="2.5" fill="#9a9a9a" fill-opacity="0.55"/>
<circle cx="207" cy="272" r="2.5" fill="#9a9a9a" fill-opacity="0.55"/>
<circle cx="207" cy="290" r="2.5" fill="#9a9a9a" fill-opacity="0.55"/>
<circle cx="207" cy="308" r="2.5" fill="#9a9a9a" fill-opacity="0.55"/>
<circle cx="207" cy="332" r="2.5" fill="#9a9a9a" fill-opacity="0.55"/>
<circle cx="207" cy="350" r="2.5" fill="#9a9a9a" fill-opacity="0.55"/>
<circle cx="224" cy="70" r="2.5" fill="#9a9a9a" fill-opacity="0.55"/>
<circle cx="224" cy="88" r="2.5" fill="#9a9a9a" fill-opacity="0.55"/>
<circle cx="224" cy="128" r="2.5" fill="#9a9a9a" fill-opacity="0.55"/>
<circle cx="224" cy="146" r="2.5" fill="#9a9a9a" fill-opacity="0.55"/>
<circle cx="224" cy="164" r="2.5" fill="#9a9a9a" fill-opacity="0.55"/>
<circle cx="224" cy="182" r="2.5" fill="#9a9a9a" fill-opacity="0.55"/>
<circle cx="224" cy="200" r="2.5" fill="#9a9a9a" fill-opacity="0.55"/>
<circle cx="224" cy="236" r="2.5" fill="#9a9a9a" fill-opacity="0.55"/>
<circle cx="224" cy="254" r="2.5" fill="#9a9a9a" fill-opacity="0.55"/>
<circle cx="224" cy="272" r="2.5" fill="#9a9a9a" fill-opacity="0.55"/>
<circle cx="224" cy="290" r="2.5" fill="#9a9a9a" fill-opacity="0.55"/>
<circle cx="224" cy="308" r="2.5" fill="#9a9a9a" fill-opacity="0.55"/>
<circle cx="224" cy="332" r="2.5" fill="#9a9a9a" fill-opacity="0.55"/>
<circle cx="224" cy="350" r="2.5" fill="#9a9a9a" fill-opacity="0.55"/>
<circle cx="241" cy="70" r="2.5" fill="#9a9a9a" fill-opacity="0.55"/>
<circle cx="241" cy="88" r="2.5" fill="#9a9a9a" fill-opacity="0.55"/>
<circle cx="241" cy="128" r="2.5" fill="#9a9a9a" fill-opacity="0.55"/>
<circle cx="241" cy="146" r="2.5" fill="#9a9a9a" fill-opacity="0.55"/>
<circle cx="241" cy="164" r="2.5" fill="#9a9a9a" fill-opacity="0.55"/>
<circle cx="241" cy="182" r="2.5" fill="#9a9a9a" fill-opacity="0.55"/>
<circle cx="241" cy="200" r="2.5" fill="#9a9a9a" fill-opacity="0.55"/>
<circle cx="241" cy="236" r="2.5" fill="#9a9a9a" fill-opacity="0.55"/>
<circle cx="241" cy="254" r="2.5" fill="#9a9a9a" fill-opacity="0.55"/>
<circle cx="241" cy="272" r="2.5" fill="#9a9a9a" fill-opacity="0.55"/>
<circle cx="241" cy="290" r="2.5" fill="#9a9a9a" fill-opacity="0.55"/>
<circle cx="241" cy="308" r="2.5" fill="#9a9a9a" fill-opacity="0.55"/>
<circle cx="241" cy="332" r="2.5" fill="#9a9a9a" fill-opacity="0.55"/>
<circle cx="241" cy="350" r="2.5" fill="#9a9a9a" fill-opacity="0.55"/>
<circle cx="258" cy="70" r="2.5" fill="#9a9a9a" fill-opacity="0.55"/>
<circle cx="258" cy="88" r="2.5" fill="#9a9a9a" fill-opacity="0.55"/>
<circle cx="258" cy="128" r="2.5" fill="#9a9a9a" fill-opacity="0.55"/>
<circle cx="258" cy="146" r="2.5" fill="#9a9a9a" fill-opacity="0.55"/>
<circle cx="258" cy="164" r="2.5" fill="#9a9a9a" fill-opacity="0.55"/>
<circle cx="258" cy="182" r="2.5" fill="#9a9a9a" fill-opacity="0.55"/>
<circle cx="258" cy="200" r="2.5" fill="#9a9a9a" fill-opacity="0.55"/>
<circle cx="258" cy="236" r="2.5" fill="#9a9a9a" fill-opacity="0.55"/>
<circle cx="258" cy="254" r="2.5" fill="#9a9a9a" fill-opacity="0.55"/>
<circle cx="258" cy="272" r="2.5" fill="#9a9a9a" fill-opacity="0.55"/>
<circle cx="258" cy="290" r="2.5" fill="#9a9a9a" fill-opacity="0.55"/>
<circle cx="258" cy="308" r="2.5" fill="#9a9a9a" fill-opacity="0.55"/>
<circle cx="258" cy="332" r="2.5" fill="#9a9a9a" fill-opacity="0.55"/>
<circle cx="258" cy="350" r="2.5" fill="#9a9a9a" fill-opacity="0.55"/>
<circle cx="275" cy="70" r="2.5" fill="#9a9a9a" fill-opacity="0.55"/>
<circle cx="275" cy="88" r="2.5" fill="#9a9a9a" fill-opacity="0.55"/>
<circle cx="275" cy="128" r="2.5" fill="#9a9a9a" fill-opacity="0.55"/>
<circle cx="275" cy="146" r="2.5" fill="#9a9a9a" fill-opacity="0.55"/>
<circle cx="275" cy="164" r="2.5" fill="#9a9a9a" fill-opacity="0.55"/>
<circle cx="275" cy="182" r="2.5" fill="#9a9a9a" fill-opacity="0.55"/>
<circle cx="275" cy="200" r="2.5" fill="#9a9a9a" fill-opacity="0.55"/>
<circle cx="275" cy="236" r="2.5" fill="#9a9a9a" fill-opacity="0.55"/>
<circle cx="275" cy="254" r="2.5" fill="#9a9a9a" fill-opacity="0.55"/>
<circle cx="275" cy="272" r="2.5" fill="#9a9a9a" fill-opacity="0.55"/>
<circle cx="275" cy="290" r="2.5" fill="#9a9a9a" fill-opacity="0.55"/>
<circle cx="275" cy="308" r="2.5" fill="#9a9a9a" fill-opacity="0.55"/>
<circle cx="275" cy="332" r="2.5" fill="#9a9a9a" fill-opacity="0.55"/>
<circle cx="275" cy="350" r="2.5" fill="#9a9a9a" fill-opacity="0.55"/>
<circle cx="292" cy="70" r="2.5" fill="#9a9a9a" fill-opacity="0.55"/>
<circle cx="292" cy="88" r="2.5" fill="#9a9a9a" fill-opacity="0.55"/>
<circle cx="292" cy="128" r="2.5" fill="#9a9a9a" fill-opacity="0.55"/>
<circle cx="292" cy="146" r="2.5" fill="#9a9a9a" fill-opacity="0.55"/>
<circle cx="292" cy="164" r="2.5" fill="#9a9a9a" fill-opacity="0.55"/>
<circle cx="292" cy="182" r="2.5" fill="#9a9a9a" fill-opacity="0.55"/>
<circle cx="292" cy="200" r="2.5" fill="#9a9a9a" fill-opacity="0.55"/>
<circle cx="292" cy="236" r="2.5" fill="#9a9a9a" fill-opacity="0.55"/>
<circle cx="292" cy="254" r="2.5" fill="#9a9a9a" fill-opacity="0.55"/>
<circle cx="292" cy="272" r="2.5" fill="#9a9a9a" fill-opacity="0.55"/>
<circle cx="292" cy="290" r="2.5" fill="#9a9a9a" fill-opacity="0.55"/>
<circle cx="292" cy="308" r="2.5" fill="#9a9a9a" fill-opacity="0.55"/>
<circle cx="292" cy="332" r="2.5" fill="#9a9a9a" fill-opacity="0.55"/>
<circle cx="292" cy="350" r="2.5" fill="#9a9a9a" fill-opacity="0.55"/>
<circle cx="309" cy="70" r="2.5" fill="#9a9a9a" fill-opacity="0.55"/>
<circle cx="309" cy="88" r="2.5" fill="#9a9a9a" fill-opacity="0.55"/>
<circle cx="309" cy="128" r="2.5" fill="#9a9a9a" fill-opacity="0.55"/>
<circle cx="309" cy="146" r="2.5" fill="#9a9a9a" fill-opacity="0.55"/>
<circle cx="309" cy="164" r="2.5" fill="#9a9a9a" fill-opacity="0.55"/>
<circle cx="309" cy="182" r="2.5" fill="#9a9a9a" fill-opacity="0.55"/>
<circle cx="309" cy="200" r="2.5" fill="#9a9a9a" fill-opacity="0.55"/>
<circle cx="309" cy="236" r="2.5" fill="#9a9a9a" fill-opacity="0.55"/>
<circle cx="309" cy="254" r="2.5" fill="#9a9a9a" fill-opacity="0.55"/>
<circle cx="309" cy="272" r="2.5" fill="#9a9a9a" fill-opacity="0.55"/>
<circle cx="309" cy="290" r="2.5" fill="#9a9a9a" fill-opacity="0.55"/>
<circle cx="309" cy="308" r="2.5" fill="#9a9a9a" fill-opacity="0.55"/>
<circle cx="309" cy="332" r="2.5" fill="#9a9a9a" fill-opacity="0.55"/>
<circle cx="309" cy="350" r="2.5" fill="#9a9a9a" fill-opacity="0.55"/>
<circle cx="326" cy="70" r="2.5" fill="#9a9a9a" fill-opacity="0.55"/>
<circle cx="326" cy="88" r="2.5" fill="#9a9a9a" fill-opacity="0.55"/>
<circle cx="326" cy="128" r="2.5" fill="#9a9a9a" fill-opacity="0.55"/>
<circle cx="326" cy="146" r="2.5" fill="#9a9a9a" fill-opacity="0.55"/>
<circle cx="326" cy="164" r="2.5" fill="#9a9a9a" fill-opacity="0.55"/>
<circle cx="326" cy="182" r="2.5" fill="#9a9a9a" fill-opacity="0.55"/>
<circle cx="326" cy="200" r="2.5" fill="#9a9a9a" fill-opacity="0.55"/>
<circle cx="326" cy="236" r="2.5" fill="#9a9a9a" fill-opacity="0.55"/>
<circle cx="326" cy="254" r="2.5" fill="#9a9a9a" fill-opacity="0.55"/>
<circle cx="326" cy="272" r="2.5" fill="#9a9a9a" fill-opacity="0.55"/>
<circle cx="326" cy="290" r="2.5" fill="#9a9a9a" fill-opacity="0.55"/>
<circle cx="326" cy="308" r="2.5" fill="#9a9a9a" fill-opacity="0.55"/>
<circle cx="326" cy="332" r="2.5" fill="#9a9a9a" fill-opacity="0.55"/>
<circle cx="326" cy="350" r="2.5" fill="#9a9a9a" fill-opacity="0.55"/>
<circle cx="343" cy="70" r="2.5" fill="#9a9a9a" fill-opacity="0.55"/>
<circle cx="343" cy="88" r="2.5" fill="#9a9a9a" fill-opacity="0.55"/>
<circle cx="343" cy="128" r="2.5" fill="#9a9a9a" fill-opacity="0.55"/>
<circle cx="343" cy="146" r="2.5" fill="#9a9a9a" fill-opacity="0.55"/>
<circle cx="343" cy="164" r="2.5" fill="#9a9a9a" fill-opacity="0.55"/>
<circle cx="343" cy="182" r="2.5" fill="#9a9a9a" fill-opacity="0.55"/>
<circle cx="343" cy="200" r="2.5" fill="#9a9a9a" fill-opacity="0.55"/>
<circle cx="343" cy="236" r="2.5" fill="#9a9a9a" fill-opacity="0.55"/>
<circle cx="343" cy="254" r="2.5" fill="#9a9a9a" fill-opacity="0.55"/>
<circle cx="343" cy="272" r="2.5" fill="#9a9a9a" fill-opacity="0.55"/>
<circle cx="343" cy="290" r="2.5" fill="#9a9a9a" fill-opacity="0.55"/>
<circle cx="343" cy="308" r="2.5" fill="#9a9a9a" fill-opacity="0.55"/>
<circle cx="343" cy="332" r="2.5" fill="#9a9a9a" fill-opacity="0.55"/>
<circle cx="343" cy="350" r="2.5" fill="#9a9a9a" fill-opacity="0.55"/>
<circle cx="360" cy="70" r="2.5" fill="#9a9a9a" fill-opacity="0.55"/>
<circle cx="360" cy="88" r="2.5" fill="#9a9a9a" fill-opacity="0.55"/>
<circle cx="360" cy="128" r="2.5" fill="#9a9a9a" fill-opacity="0.55"/>
<circle cx="360" cy="146" r="2.5" fill="#9a9a9a" fill-opacity="0.55"/>
<circle cx="360" cy="164" r="2.5" fill="#9a9a9a" fill-opacity="0.55"/>
<circle cx="360" cy="182" r="2.5" fill="#9a9a9a" fill-opacity="0.55"/>
<circle cx="360" cy="200" r="2.5" fill="#9a9a9a" fill-opacity="0.55"/>
<circle cx="360" cy="236" r="2.5" fill="#9a9a9a" fill-opacity="0.55"/>
<circle cx="360" cy="254" r="2.5" fill="#9a9a9a" fill-opacity="0.55"/>
<circle cx="360" cy="272" r="2.5" fill="#9a9a9a" fill-opacity="0.55"/>
<circle cx="360" cy="290" r="2.5" fill="#9a9a9a" fill-opacity="0.55"/>
<circle cx="360" cy="308" r="2.5" fill="#9a9a9a" fill-opacity="0.55"/>
<circle cx="360" cy="332" r="2.5" fill="#9a9a9a" fill-opacity="0.55"/>
<circle cx="360" cy="350" r="2.5" fill="#9a9a9a" fill-opacity="0.55"/>
<circle cx="377" cy="70" r="2.5" fill="#9a9a9a" fill-opacity="0.55"/>
<circle cx="377" cy="88" r="2.5" fill="#9a9a9a" fill-opacity="0.55"/>
<circle cx="377" cy="128" r="2.5" fill="#9a9a9a" fill-opacity="0.55"/>
<circle cx="377" cy="146" r="2.5" fill="#9a9a9a" fill-opacity="0.55"/>
<circle cx="377" cy="164" r="2.5" fill="#9a9a9a" fill-opacity="0.55"/>
<circle cx="377" cy="182" r="2.5" fill="#9a9a9a" fill-opacity="0.55"/>
<circle cx="377" cy="200" r="2.5" fill="#9a9a9a" fill-opacity="0.55"/>
<circle cx="377" cy="236" r="2.5" fill="#9a9a9a" fill-opacity="0.55"/>
<circle cx="377" cy="254" r="2.5" fill="#9a9a9a" fill-opacity="0.55"/>
<circle cx="377" cy="272" r="2.5" fill="#9a9a9a" fill-opacity="0.55"/>
<circle cx="377" cy="290" r="2.5" fill="#9a9a9a" fill-opacity="0.55"/>
<circle cx="377" cy="308" r="2.5" fill="#9a9a9a" fill-opacity="0.55"/>
<circle cx="377" cy="332" r="2.5" fill="#9a9a9a" fill-opacity="0.55"/>
<circle cx="377" cy="350" r="2.5" fill="#9a9a9a" fill-opacity="0.55"/>
<circle cx="394" cy="70" r="2.5" fill="#9a9a9a" fill-opacity="0.55"/>
<circle cx="394" cy="88" r="2.5" fill="#9a9a9a" fill-opacity="0.55"/>
<circle cx="394" cy="128" r="2.5" fill="#9a9a9a" fill-opacity="0.55"/>
<circle cx="394" cy="146" r="2.5" fill="#9a9a9a" fill-opacity="0.55"/>
<circle cx="394" cy="164" r="2.5" fill="#9a9a9a" fill-opacity="0.55"/>
<circle cx="394" cy="182" r="2.5" fill="#9a9a9a" fill-opacity="0.55"/>
<circle cx="394" cy="200" r="2.5" fill="#9a9a9a" fill-opacity="0.55"/>
<circle cx="394" cy="236" r="2.5" fill="#9a9a9a" fill-opacity="0.55"/>
<circle cx="394" cy="254" r="2.5" fill="#9a9a9a" fill-opacity="0.55"/>
<circle cx="394" cy="272" r="2.5" fill="#9a9a9a" fill-opacity="0.55"/>
<circle cx="394" cy="290" r="2.5" fill="#9a9a9a" fill-opacity="0.55"/>
<circle cx="394" cy="308" r="2.5" fill="#9a9a9a" fill-opacity="0.55"/>
<circle cx="394" cy="332" r="2.5" fill="#9a9a9a" fill-opacity="0.55"/>
<circle cx="394" cy="350" r="2.5" fill="#9a9a9a" fill-opacity="0.55"/>
<circle cx="411" cy="70" r="2.5" fill="#9a9a9a" fill-opacity="0.55"/>
<circle cx="411" cy="88" r="2.5" fill="#9a9a9a" fill-opacity="0.55"/>
<circle cx="411" cy="128" r="2.5" fill="#9a9a9a" fill-opacity="0.55"/>
<circle cx="411" cy="146" r="2.5" fill="#9a9a9a" fill-opacity="0.55"/>
<circle cx="411" cy="164" r="2.5" fill="#9a9a9a" fill-opacity="0.55"/>
<circle cx="411" cy="182" r="2.5" fill="#9a9a9a" fill-opacity="0.55"/>
<circle cx="411" cy="200" r="2.5" fill="#9a9a9a" fill-opacity="0.55"/>
<circle cx="411" cy="236" r="2.5" fill="#9a9a9a" fill-opacity="0.55"/>
<circle cx="411" cy="254" r="2.5" fill="#9a9a9a" fill-opacity="0.55"/>
<circle cx="411" cy="272" r="2.5" fill="#9a9a9a" fill-opacity="0.55"/>
<circle cx="411" cy="290" r="2.5" fill="#9a9a9a" fill-opacity="0.55"/>
<circle cx="411" cy="308" r="2.5" fill="#9a9a9a" fill-opacity="0.55"/>
<circle cx="411" cy="332" r="2.5" fill="#9a9a9a" fill-opacity="0.55"/>
<circle cx="411" cy="350" r="2.5" fill="#9a9a9a" fill-opacity="0.55"/>
<circle cx="428" cy="70" r="2.5" fill="#9a9a9a" fill-opacity="0.55"/>
<circle cx="428" cy="88" r="2.5" fill="#9a9a9a" fill-opacity="0.55"/>
<circle cx="428" cy="128" r="2.5" fill="#9a9a9a" fill-opacity="0.55"/>
<circle cx="428" cy="146" r="2.5" fill="#9a9a9a" fill-opacity="0.55"/>
<circle cx="428" cy="164" r="2.5" fill="#9a9a9a" fill-opacity="0.55"/>
<circle cx="428" cy="182" r="2.5" fill="#9a9a9a" fill-opacity="0.55"/>
<circle cx="428" cy="200" r="2.5" fill="#9a9a9a" fill-opacity="0.55"/>
<circle cx="428" cy="236" r="2.5" fill="#9a9a9a" fill-opacity="0.55"/>
<circle cx="428" cy="254" r="2.5" fill="#9a9a9a" fill-opacity="0.55"/>
<circle cx="428" cy="272" r="2.5" fill="#9a9a9a" fill-opacity="0.55"/>
<circle cx="428" cy="290" r="2.5" fill="#9a9a9a" fill-opacity="0.55"/>
<circle cx="428" cy="308" r="2.5" fill="#9a9a9a" fill-opacity="0.55"/>
<circle cx="428" cy="332" r="2.5" fill="#9a9a9a" fill-opacity="0.55"/>
<circle cx="428" cy="350" r="2.5" fill="#9a9a9a" fill-opacity="0.55"/>
<circle cx="445" cy="70" r="2.5" fill="#9a9a9a" fill-opacity="0.55"/>
<circle cx="445" cy="88" r="2.5" fill="#9a9a9a" fill-opacity="0.55"/>
<circle cx="445" cy="128" r="2.5" fill="#9a9a9a" fill-opacity="0.55"/>
<circle cx="445" cy="146" r="2.5" fill="#9a9a9a" fill-opacity="0.55"/>
<circle cx="445" cy="164" r="2.5" fill="#9a9a9a" fill-opacity="0.55"/>
<circle cx="445" cy="182" r="2.5" fill="#9a9a9a" fill-opacity="0.55"/>
<circle cx="445" cy="200" r="2.5" fill="#9a9a9a" fill-opacity="0.55"/>
<circle cx="445" cy="236" r="2.5" fill="#9a9a9a" fill-opacity="0.55"/>
<circle cx="445" cy="254" r="2.5" fill="#9a9a9a" fill-opacity="0.55"/>
<circle cx="445" cy="272" r="2.5" fill="#9a9a9a" fill-opacity="0.55"/>
<circle cx="445" cy="290" r="2.5" fill="#9a9a9a" fill-opacity="0.55"/>
<circle cx="445" cy="308" r="2.5" fill="#9a9a9a" fill-opacity="0.55"/>
<circle cx="445" cy="332" r="2.5" fill="#9a9a9a" fill-opacity="0.55"/>
<circle cx="445" cy="350" r="2.5" fill="#9a9a9a" fill-opacity="0.55"/>
<circle cx="462" cy="70" r="2.5" fill="#9a9a9a" fill-opacity="0.55"/>
<circle cx="462" cy="88" r="2.5" fill="#9a9a9a" fill-opacity="0.55"/>
<circle cx="462" cy="128" r="2.5" fill="#9a9a9a" fill-opacity="0.55"/>
<circle cx="462" cy="146" r="2.5" fill="#9a9a9a" fill-opacity="0.55"/>
<circle cx="462" cy="164" r="2.5" fill="#9a9a9a" fill-opacity="0.55"/>
<circle cx="462" cy="182" r="2.5" fill="#9a9a9a" fill-opacity="0.55"/>
<circle cx="462" cy="200" r="2.5" fill="#9a9a9a" fill-opacity="0.55"/>
<circle cx="462" cy="236" r="2.5" fill="#9a9a9a" fill-opacity="0.55"/>
<circle cx="462" cy="254" r="2.5" fill="#9a9a9a" fill-opacity="0.55"/>
<circle cx="462" cy="272" r="2.5" fill="#9a9a9a" fill-opacity="0.55"/>
<circle cx="462" cy="290" r="2.5" fill="#9a9a9a" fill-opacity="0.55"/>
<circle cx="462" cy="308" r="2.5" fill="#9a9a9a" fill-opacity="0.55"/>
<circle cx="462" cy="332" r="2.5" fill="#9a9a9a" fill-opacity="0.55"/>
<circle cx="462" cy="350" r="2.5" fill="#9a9a9a" fill-opacity="0.55"/>
<circle cx="479" cy="70" r="2.5" fill="#9a9a9a" fill-opacity="0.55"/>
<circle cx="479" cy="88" r="2.5" fill="#9a9a9a" fill-opacity="0.55"/>
<circle cx="479" cy="128" r="2.5" fill="#9a9a9a" fill-opacity="0.55"/>
<circle cx="479" cy="146" r="2.5" fill="#9a9a9a" fill-opacity="0.55"/>
<circle cx="479" cy="164" r="2.5" fill="#9a9a9a" fill-opacity="0.55"/>
<circle cx="479" cy="182" r="2.5" fill="#9a9a9a" fill-opacity="0.55"/>
<circle cx="479" cy="200" r="2.5" fill="#9a9a9a" fill-opacity="0.55"/>
<circle cx="479" cy="236" r="2.5" fill="#9a9a9a" fill-opacity="0.55"/>
<circle cx="479" cy="254" r="2.5" fill="#9a9a9a" fill-opacity="0.55"/>
<circle cx="479" cy="272" r="2.5" fill="#9a9a9a" fill-opacity="0.55"/>
<circle cx="479" cy="290" r="2.5" fill="#9a9a9a" fill-opacity="0.55"/>
<circle cx="479" cy="308" r="2.5" fill="#9a9a9a" fill-opacity="0.55"/>
<circle cx="479" cy="332" r="2.5" fill="#9a9a9a" fill-opacity="0.55"/>
<circle cx="479" cy="350" r="2.5" fill="#9a9a9a" fill-opacity="0.55"/>
<circle cx="496" cy="70" r="2.5" fill="#9a9a9a" fill-opacity="0.55"/>
<circle cx="496" cy="88" r="2.5" fill="#9a9a9a" fill-opacity="0.55"/>
<circle cx="496" cy="128" r="2.5" fill="#9a9a9a" fill-opacity="0.55"/>
<circle cx="496" cy="146" r="2.5" fill="#9a9a9a" fill-opacity="0.55"/>
<circle cx="496" cy="164" r="2.5" fill="#9a9a9a" fill-opacity="0.55"/>
<circle cx="496" cy="182" r="2.5" fill="#9a9a9a" fill-opacity="0.55"/>
<circle cx="496" cy="200" r="2.5" fill="#9a9a9a" fill-opacity="0.55"/>
<circle cx="496" cy="236" r="2.5" fill="#9a9a9a" fill-opacity="0.55"/>
<circle cx="496" cy="254" r="2.5" fill="#9a9a9a" fill-opacity="0.55"/>
<circle cx="496" cy="272" r="2.5" fill="#9a9a9a" fill-opacity="0.55"/>
<circle cx="496" cy="290" r="2.5" fill="#9a9a9a" fill-opacity="0.55"/>
<circle cx="496" cy="308" r="2.5" fill="#9a9a9a" fill-opacity="0.55"/>
<circle cx="496" cy="332" r="2.5" fill="#9a9a9a" fill-opacity="0.55"/>
<circle cx="496" cy="350" r="2.5" fill="#9a9a9a" fill-opacity="0.55"/>
<circle cx="513" cy="70" r="2.5" fill="#9a9a9a" fill-opacity="0.55"/>
<circle cx="513" cy="88" r="2.5" fill="#9a9a9a" fill-opacity="0.55"/>
<circle cx="513" cy="128" r="2.5" fill="#9a9a9a" fill-opacity="0.55"/>
<circle cx="513" cy="146" r="2.5" fill="#9a9a9a" fill-opacity="0.55"/>
<circle cx="513" cy="164" r="2.5" fill="#9a9a9a" fill-opacity="0.55"/>
<circle cx="513" cy="182" r="2.5" fill="#9a9a9a" fill-opacity="0.55"/>
<circle cx="513" cy="200" r="2.5" fill="#9a9a9a" fill-opacity="0.55"/>
<circle cx="513" cy="236" r="2.5" fill="#9a9a9a" fill-opacity="0.55"/>
<circle cx="513" cy="254" r="2.5" fill="#9a9a9a" fill-opacity="0.55"/>
<circle cx="513" cy="272" r="2.5" fill="#9a9a9a" fill-opacity="0.55"/>
<circle cx="513" cy="290" r="2.5" fill="#9a9a9a" fill-opacity="0.55"/>
<circle cx="513" cy="308" r="2.5" fill="#9a9a9a" fill-opacity="0.55"/>
<circle cx="513" cy="332" r="2.5" fill="#9a9a9a" fill-opacity="0.55"/>
<circle cx="513" cy="350" r="2.5" fill="#9a9a9a" fill-opacity="0.55"/>
<circle cx="530" cy="70" r="2.5" fill="#9a9a9a" fill-opacity="0.55"/>
<circle cx="530" cy="88" r="2.5" fill="#9a9a9a" fill-opacity="0.55"/>
<circle cx="530" cy="128" r="2.5" fill="#9a9a9a" fill-opacity="0.55"/>
<circle cx="530" cy="146" r="2.5" fill="#9a9a9a" fill-opacity="0.55"/>
<circle cx="530" cy="164" r="2.5" fill="#9a9a9a" fill-opacity="0.55"/>
<circle cx="530" cy="182" r="2.5" fill="#9a9a9a" fill-opacity="0.55"/>
<circle cx="530" cy="200" r="2.5" fill="#9a9a9a" fill-opacity="0.55"/>
<circle cx="530" cy="236" r="2.5" fill="#9a9a9a" fill-opacity="0.55"/>
<circle cx="530" cy="254" r="2.5" fill="#9a9a9a" fill-opacity="0.55"/>
<circle cx="530" cy="272" r="2.5" fill="#9a9a9a" fill-opacity="0.55"/>
<circle cx="530" cy="290" r="2.5" fill="#9a9a9a" fill-opacity="0.55"/>
<circle cx="530" cy="308" r="2.5" fill="#9a9a9a" fill-opacity="0.55"/>
<circle cx="530" cy="332" r="2.5" fill="#9a9a9a" fill-opacity="0.55"/>
<circle cx="530" cy="350" r="2.5" fill="#9a9a9a" fill-opacity="0.55"/>
<circle cx="547" cy="70" r="2.5" fill="#9a9a9a" fill-opacity="0.55"/>
<circle cx="547" cy="88" r="2.5" fill="#9a9a9a" fill-opacity="0.55"/>
<circle cx="547" cy="128" r="2.5" fill="#9a9a9a" fill-opacity="0.55"/>
<circle cx="547" cy="146" r="2.5" fill="#9a9a9a" fill-opacity="0.55"/>
<circle cx="547" cy="164" r="2.5" fill="#9a9a9a" fill-opacity="0.55"/>
<circle cx="547" cy="182" r="2.5" fill="#9a9a9a" fill-opacity="0.55"/>
<circle cx="547" cy="200" r="2.5" fill="#9a9a9a" fill-opacity="0.55"/>
<circle cx="547" cy="236" r="2.5" fill="#9a9a9a" fill-opacity="0.55"/>
<circle cx="547" cy="254" r="2.5" fill="#9a9a9a" fill-opacity="0.55"/>
<circle cx="547" cy="272" r="2.5" fill="#9a9a9a" fill-opacity="0.55"/>
<circle cx="547" cy="290" r="2.5" fill="#9a9a9a" fill-opacity="0.55"/>
<circle cx="547" cy="308" r="2.5" fill="#9a9a9a" fill-opacity="0.55"/>
<circle cx="547" cy="332" r="2.5" fill="#9a9a9a" fill-opacity="0.55"/>
<circle cx="547" cy="350" r="2.5" fill="#9a9a9a" fill-opacity="0.55"/>
<circle cx="564" cy="70" r="2.5" fill="#9a9a9a" fill-opacity="0.55"/>
<circle cx="564" cy="88" r="2.5" fill="#9a9a9a" fill-opacity="0.55"/>
<circle cx="564" cy="128" r="2.5" fill="#9a9a9a" fill-opacity="0.55"/>
<circle cx="564" cy="146" r="2.5" fill="#9a9a9a" fill-opacity="0.55"/>
<circle cx="564" cy="164" r="2.5" fill="#9a9a9a" fill-opacity="0.55"/>
<circle cx="564" cy="182" r="2.5" fill="#9a9a9a" fill-opacity="0.55"/>
<circle cx="564" cy="200" r="2.5" fill="#9a9a9a" fill-opacity="0.55"/>
<circle cx="564" cy="236" r="2.5" fill="#9a9a9a" fill-opacity="0.55"/>
<circle cx="564" cy="254" r="2.5" fill="#9a9a9a" fill-opacity="0.55"/>
<circle cx="564" cy="272" r="2.5" fill="#9a9a9a" fill-opacity="0.55"/>
<circle cx="564" cy="290" r="2.5" fill="#9a9a9a" fill-opacity="0.55"/>
<circle cx="564" cy="308" r="2.5" fill="#9a9a9a" fill-opacity="0.55"/>
<circle cx="564" cy="332" r="2.5" fill="#9a9a9a" fill-opacity="0.55"/>
<circle cx="564" cy="350" r="2.5" fill="#9a9a9a" fill-opacity="0.55"/>
<circle cx="581" cy="70" r="2.5" fill="#9a9a9a" fill-opacity="0.55"/>
<circle cx="581" cy="88" r="2.5" fill="#9a9a9a" fill-opacity="0.55"/>
<circle cx="581" cy="128" r="2.5" fill="#9a9a9a" fill-opacity="0.55"/>
<circle cx="581" cy="146" r="2.5" fill="#9a9a9a" fill-opacity="0.55"/>
<circle cx="581" cy="164" r="2.5" fill="#9a9a9a" fill-opacity="0.55"/>
<circle cx="581" cy="182" r="2.5" fill="#9a9a9a" fill-opacity="0.55"/>
<circle cx="581" cy="200" r="2.5" fill="#9a9a9a" fill-opacity="0.55"/>
<circle cx="581" cy="236" r="2.5" fill="#9a9a9a" fill-opacity="0.55"/>
<circle cx="581" cy="254" r="2.5" fill="#9a9a9a" fill-opacity="0.55"/>
<circle cx="581" cy="272" r="2.5" fill="#9a9a9a" fill-opacity="0.55"/>
<circle cx="581" cy="290" r="2.5" fill="#9a9a9a" fill-opacity="0.55"/>
<circle cx="581" cy="308" r="2.5" fill="#9a9a9a" fill-opacity="0.55"/>
<circle cx="581" cy="332" r="2.5" fill="#9a9a9a" fill-opacity="0.55"/>
<circle cx="581" cy="350" r="2.5" fill="#9a9a9a" fill-opacity="0.55"/>
<circle cx="598" cy="70" r="2.5" fill="#9a9a9a" fill-opacity="0.55"/>
<circle cx="598" cy="88" r="2.5" fill="#9a9a9a" fill-opacity="0.55"/>
<circle cx="598" cy="128" r="2.5" fill="#9a9a9a" fill-opacity="0.55"/>
<circle cx="598" cy="146" r="2.5" fill="#9a9a9a" fill-opacity="0.55"/>
<circle cx="598" cy="164" r="2.5" fill="#9a9a9a" fill-opacity="0.55"/>
<circle cx="598" cy="182" r="2.5" fill="#9a9a9a" fill-opacity="0.55"/>
<circle cx="598" cy="200" r="2.5" fill="#9a9a9a" fill-opacity="0.55"/>
<circle cx="598" cy="236" r="2.5" fill="#9a9a9a" fill-opacity="0.55"/>
<circle cx="598" cy="254" r="2.5" fill="#9a9a9a" fill-opacity="0.55"/>
<circle cx="598" cy="272" r="2.5" fill="#9a9a9a" fill-opacity="0.55"/>
<circle cx="598" cy="290" r="2.5" fill="#9a9a9a" fill-opacity="0.55"/>
<circle cx="598" cy="308" r="2.5" fill="#9a9a9a" fill-opacity="0.55"/>
<circle cx="598" cy="332" r="2.5" fill="#9a9a9a" fill-opacity="0.55"/>
<circle cx="598" cy="350" r="2.5" fill="#9a9a9a" fill-opacity="0.55"/>
<circle cx="615" cy="70" r="2.5" fill="#9a9a9a" fill-opacity="0.55"/>
<circle cx="615" cy="88" r="2.5" fill="#9a9a9a" fill-opacity="0.55"/>
<circle cx="615" cy="128" r="2.5" fill="#9a9a9a" fill-opacity="0.55"/>
<circle cx="615" cy="146" r="2.5" fill="#9a9a9a" fill-opacity="0.55"/>
<circle cx="615" cy="164" r="2.5" fill="#9a9a9a" fill-opacity="0.55"/>
<circle cx="615" cy="182" r="2.5" fill="#9a9a9a" fill-opacity="0.55"/>
<circle cx="615" cy="200" r="2.5" fill="#9a9a9a" fill-opacity="0.55"/>
<circle cx="615" cy="236" r="2.5" fill="#9a9a9a" fill-opacity="0.55"/>
<circle cx="615" cy="254" r="2.5" fill="#9a9a9a" fill-opacity="0.55"/>
<circle cx="615" cy="272" r="2.5" fill="#9a9a9a" fill-opacity="0.55"/>
<circle cx="615" cy="290" r="2.5" fill="#9a9a9a" fill-opacity="0.55"/>
<circle cx="615" cy="308" r="2.5" fill="#9a9a9a" fill-opacity="0.55"/>
<circle cx="615" cy="332" r="2.5" fill="#9a9a9a" fill-opacity="0.55"/>
<circle cx="615" cy="350" r="2.5" fill="#9a9a9a" fill-opacity="0.55"/>
<circle cx="632" cy="70" r="2.5" fill="#9a9a9a" fill-opacity="0.55"/>
<circle cx="632" cy="88" r="2.5" fill="#9a9a9a" fill-opacity="0.55"/>
<circle cx="632" cy="128" r="2.5" fill="#9a9a9a" fill-opacity="0.55"/>
<circle cx="632" cy="146" r="2.5" fill="#9a9a9a" fill-opacity="0.55"/>
<circle cx="632" cy="164" r="2.5" fill="#9a9a9a" fill-opacity="0.55"/>
<circle cx="632" cy="182" r="2.5" fill="#9a9a9a" fill-opacity="0.55"/>
<circle cx="632" cy="200" r="2.5" fill="#9a9a9a" fill-opacity="0.55"/>
<circle cx="632" cy="236" r="2.5" fill="#9a9a9a" fill-opacity="0.55"/>
<circle cx="632" cy="254" r="2.5" fill="#9a9a9a" fill-opacity="0.55"/>
<circle cx="632" cy="272" r="2.5" fill="#9a9a9a" fill-opacity="0.55"/>
<circle cx="632" cy="290" r="2.5" fill="#9a9a9a" fill-opacity="0.55"/>
<circle cx="632" cy="308" r="2.5" fill="#9a9a9a" fill-opacity="0.55"/>
<circle cx="632" cy="332" r="2.5" fill="#9a9a9a" fill-opacity="0.55"/>
<circle cx="632" cy="350" r="2.5" fill="#9a9a9a" fill-opacity="0.55"/>
<circle cx="649" cy="70" r="2.5" fill="#9a9a9a" fill-opacity="0.55"/>
<circle cx="649" cy="88" r="2.5" fill="#9a9a9a" fill-opacity="0.55"/>
<circle cx="649" cy="128" r="2.5" fill="#9a9a9a" fill-opacity="0.55"/>
<circle cx="649" cy="146" r="2.5" fill="#9a9a9a" fill-opacity="0.55"/>
<circle cx="649" cy="164" r="2.5" fill="#9a9a9a" fill-opacity="0.55"/>
<circle cx="649" cy="182" r="2.5" fill="#9a9a9a" fill-opacity="0.55"/>
<circle cx="649" cy="200" r="2.5" fill="#9a9a9a" fill-opacity="0.55"/>
<circle cx="649" cy="236" r="2.5" fill="#9a9a9a" fill-opacity="0.55"/>
<circle cx="649" cy="254" r="2.5" fill="#9a9a9a" fill-opacity="0.55"/>
<circle cx="649" cy="272" r="2.5" fill="#9a9a9a" fill-opacity="0.55"/>
<circle cx="649" cy="290" r="2.5" fill="#9a9a9a" fill-opacity="0.55"/>
<circle cx="649" cy="308" r="2.5" fill="#9a9a9a" fill-opacity="0.55"/>
<circle cx="649" cy="332" r="2.5" fill="#9a9a9a" fill-opacity="0.55"/>
<circle cx="649" cy="350" r="2.5" fill="#9a9a9a" fill-opacity="0.55"/>
<text x="20" y="74" font-weight="400" fill="#222">GND (−)</text>
<text x="20" y="92" font-weight="600" fill="#222">5V (+)</text>
<text x="20" y="336" font-weight="400" fill="#222">GND (−)</text>
<text x="20" y="354" fill="#777">livre (+)</text>
<text x="144" y="132" text-anchor="middle" fill="#777">j</text>
<text x="144" y="150" text-anchor="middle" fill="#777">i</text>
<text x="144" y="168" text-anchor="middle" fill="#777">h</text>
<text x="144" y="186" text-anchor="middle" fill="#777">g</text>
<text x="144" y="204" text-anchor="middle" fill="#777">f</text>
<text x="144" y="240" text-anchor="middle" fill="#777">e</text>
<text x="144" y="258" text-anchor="middle" fill="#777">d</text>
<text x="144" y="276" text-anchor="middle" fill="#777">c</text>
<text x="144" y="294" text-anchor="middle" fill="#777">b</text>
<text x="144" y="312" text-anchor="middle" fill="#777">a</text>
<text x="156" y="222" text-anchor="middle" font-weight="400" fill="#444">1</text>
<text x="343" y="222" text-anchor="middle" font-weight="600" fill="#444">12</text>
<text x="479" y="222" text-anchor="middle" font-weight="600" fill="#444">20</text>
<text x="547" y="222" text-anchor="middle" font-weight="600" fill="#444">24</text>
<text x="649" y="222" text-anchor="middle" font-weight="400" fill="#444">30</text>
<g stroke="#777" stroke-width="1.5"><line x1="343" x2="343" y1="125" y2="118"/><rect x="338" y="100" width="10" height="18" rx="3" fill="#d9d9d9"/><line x1="343" x2="343" y1="100" y2="91"/></g>
<g stroke="#e0662f" stroke-width="1.5"><line x1="479" x2="479" y1="311" y2="315"/><rect x="472" y="315" width="14" height="13" rx="3" fill="#f3c2a8"/><line x1="479" x2="479" y1="328" y2="331"/></g>
<g stroke="#777" stroke-width="1.5"><line x1="482" x2="501" y1="272" y2="272"/><rect x="501" y="266" width="24" height="12" rx="3" fill="#d9d9d9"/><line x1="525" x2="544" y1="272" y2="272"/></g>
<circle cx="343" cy="164" r="4.5" fill="#2f6fb5"/>
<circle cx="343" cy="128" r="4.5" fill="#2f6fb5"/>
<circle cx="343" cy="200" r="4.5" fill="#2f6fb5"/>
<circle cx="479" cy="236" r="4.5" fill="#e0662f"/>
<circle cx="479" cy="272" r="4.5" fill="#e0662f"/>
<circle cx="479" cy="308" r="4.5" fill="#e0662f"/>
<circle cx="547" cy="272" r="4.5" fill="#2f6fb5"/>
<circle cx="547" cy="308" r="4.5" fill="#2f6fb5"/>
<path d="M652 70H692V332H652" fill="none" stroke="#777" stroke-width="2.5"/>
<text x="700" y="196" fill="#222">jumper</text><text x="700" y="212" fill="#222">GND</text>
<rect x="156" y="376" width="10" height="10" rx="2" fill="#e0662f"/>
<text x="172" y="385" fill="#222">Coluna 20: Peltier + (e20), resistor de proteção 4,7 kΩ (c20), resistor de carga até o GND (a20)</text>
<rect x="156" y="396" width="10" height="10" rx="2" fill="#2f6fb5"/>
<text x="172" y="405" fill="#222">Coluna 24: outra perna da proteção (c24), jumper ao pino A0 (a24)</text>
</svg>